<svg width="744" height="218" viewBox="0 0 744 218" fill="none" xmlns="http://www.w3.org/2000/svg">
<path d="M248.246 212.98C248.476 177.08 240.746 141.22 225.116 108.94C207.856 72.67 180.766 41.07 147.956 18.04C137.546 10.13 148.216 -5.31001 159.346 1.82999C199.786 32.73 230.576 75.83 246.166 124.25C255.386 152.89 259.286 183.3 257.756 213.26C257.286 219.36 248.386 219.2 248.246 212.98Z" fill="url(#paint0_linear_947_195)"/>
<path d="M218.906 183.31C209.546 151.07 193.656 120.87 172.316 94.99C151.146 69.35 124.676 48.2 95.0956 33.18C90.2156 30.7 88.2756 24.74 90.7556 19.86C93.2356 14.98 99.1956 13.04 104.076 15.52C143.046 37.35 176.126 69.33 199.206 107.51C212.836 130.16 223.076 154.91 229.306 180.54C230.776 187.32 221.056 190 218.906 183.31Z" fill="url(#paint1_linear_947_195)"/>
<path d="M185.676 165.75C171.756 143.14 154.456 122.79 134.376 105.5C108.736 83.49 78.5763 66.72 46.5963 56.62C41.3863 54.96 38.4963 49.39 40.1563 44.18C41.8163 38.97 47.3863 36.08 52.5963 37.74C97.8963 54.6 138.076 83.62 168.116 121.26C178.026 133.65 186.806 146.88 194.366 160.73C195.696 163.16 194.796 166.21 192.366 167.54C189.996 168.82 187.056 168.01 185.676 165.75Z" fill="url(#paint2_linear_947_195)"/>
<path d="M146.616 165.64C130.546 144.66 110.906 126.44 88.7559 112.17C66.8559 97.96 42.4859 87.67 17.1559 81.73C11.8259 80.48 8.51589 75.15 9.76589 69.82C11.0459 64.24 16.9159 60.89 22.3659 62.62C49.1459 70.93 74.4859 83.8 96.8159 100.64C118.996 117.27 138.196 137.75 153.406 160.82C156.216 165.29 149.946 169.83 146.616 165.64Z" fill="url(#paint3_linear_947_195)"/>
<path d="M100.696 165.57C87.5361 149.83 71.1861 136.96 52.9061 127.85C38.9261 120.94 23.7861 116.21 8.41606 113.89C2.99606 113.06 -0.713935 108 0.116065 102.59C0.966065 96.8 6.82606 92.97 12.4761 94.51C31.7061 99.58 49.9961 107.88 66.2261 119.33C82.2261 130.56 96.0861 144.74 106.926 160.9C109.556 164.99 103.896 169.28 100.696 165.57Z" fill="url(#paint4_linear_947_195)"/>
<path d="M49.2664 156.02C38.1664 149.68 25.8764 146.78 14.2264 147.22C8.67639 147.43 4.00639 143.1 3.79639 137.54C3.58639 131.99 7.91639 127.32 13.4764 127.11C14.7264 127.06 15.9064 127.25 17.0464 127.61C24.3264 129.7 31.1964 132.75 37.4064 136.6C43.6264 140.45 49.1764 145.08 53.9264 150.25C55.3264 151.77 55.2264 154.14 53.7064 155.55C52.4664 156.69 50.6564 156.84 49.2664 156.02Z" fill="url(#paint5_linear_947_195)"/>
<path d="M224.816 9.74C255.176 51.61 275.016 100.95 282.336 152.1C283.246 159.97 271.956 161.94 270.186 154.16C263.126 117.94 249.586 83 230.166 51.65C223.736 41.24 216.666 31.25 209.036 21.73C205.616 17.46 206.306 11.23 210.576 7.81C214.986 4.26 221.526 5.16 224.816 9.74Z" fill="url(#paint6_linear_947_195)"/>
<path d="M277.586 26.12C295.306 62.93 305.786 103.14 308.186 143.78C308.366 146.77 306.086 149.34 303.096 149.51C300.256 149.68 297.786 147.62 297.406 144.85C292.206 106.31 279.446 68.89 260.056 35.34C257.316 30.6 258.946 24.54 263.686 21.8C268.646 18.92 275.126 20.93 277.586 26.12Z" fill="url(#paint7_linear_947_195)"/>
<path d="M329.146 68.4C329.886 86.13 328.496 103.73 325.086 120.71C324.596 123.14 322.226 124.72 319.796 124.23C317.686 123.81 316.216 121.97 316.186 119.9C315.926 103.28 313.646 86.91 309.546 71.24C308.156 65.92 311.336 60.47 316.656 59.07C322.736 57.4 329.016 62.1 329.146 68.4Z" fill="url(#paint8_linear_947_195)"/>
<path d="M399.676 171.12H384.976C384.266 169.88 383.916 168.55 383.916 167.13C383.916 165.95 384.266 164.95 384.976 164.12C385.686 163.29 386.866 162.88 388.516 162.88C389.996 162.88 391.586 163.35 393.296 164.3C393.826 164.6 394.226 164.7 394.486 164.61C394.756 164.52 395.006 164.18 395.236 163.59L397.536 157.92C397.716 157.39 397.756 156.87 397.666 156.37C397.576 155.87 397.266 155.44 396.736 155.09C395.146 153.97 393.416 153.17 391.556 152.7C389.696 152.23 387.646 151.99 385.396 151.99C383.626 151.99 381.896 152.27 380.216 152.83C378.536 153.39 377.026 154.2 375.696 155.27C374.366 156.33 373.306 157.63 372.506 159.17C371.706 160.71 371.306 162.48 371.306 164.48C371.306 166.72 371.836 168.94 372.896 171.12H367.136C366.366 171.12 365.836 171.36 365.546 171.83C365.246 172.3 365.106 172.92 365.106 173.69V179.71C365.106 180.54 365.236 181.16 365.506 181.57C365.776 181.98 366.316 182.19 367.146 182.19H399.556C400.386 182.19 400.946 181.98 401.236 181.57C401.526 181.16 401.676 180.54 401.676 179.71V173.69C401.676 172.92 401.526 172.3 401.236 171.83C400.976 171.35 400.446 171.12 399.676 171.12Z" fill="#391172"/>
<path d="M445.467 143.75L464.777 127.37C465.547 126.72 465.917 126.1 465.887 125.51C465.857 124.92 465.517 124.24 464.867 123.47L460.967 119.13C459.967 117.95 458.667 118.01 457.067 119.31L431.117 141.27C430.587 141.74 430.227 142.17 430.057 142.55C429.877 142.93 429.787 143.39 429.787 143.92V148.53C429.787 149.3 429.947 149.84 430.277 150.17C430.597 150.5 431.177 150.78 432.007 151.01C436.607 152.25 440.537 153.58 443.787 154.99C447.037 156.41 449.677 157.81 451.717 159.2C453.757 160.59 455.227 161.95 456.147 163.27C457.057 164.6 457.517 165.82 457.517 166.94C457.517 168.3 456.967 169.21 455.877 169.69C454.787 170.16 453.297 170.4 451.407 170.4H432.017H431.127H426.167C424.987 170.4 424.217 170.19 423.867 169.78C423.517 169.37 423.337 168.54 423.337 167.3V120.81C423.337 120.16 423.157 119.63 422.807 119.22C422.457 118.81 421.947 118.66 421.297 118.78L412.797 119.84C412.147 119.96 411.647 120.16 411.297 120.46C410.947 120.76 410.767 121.35 410.767 122.23V170.4C410.767 174.3 411.917 177.23 414.217 179.21C416.517 181.19 420.207 182.18 425.287 182.18H431.127H432.017H450.617C452.857 182.18 455.147 181.99 457.477 181.6C459.807 181.22 461.917 180.51 463.807 179.47C465.697 178.44 467.247 176.99 468.457 175.13C469.667 173.27 470.277 170.87 470.277 167.91C470.277 162.89 468.237 158.45 464.167 154.58C460.077 150.73 453.847 147.12 445.467 143.75Z" fill="#391172"/>
<path d="M497.627 133.92C499.277 133.92 500.637 133.45 501.697 132.5C502.757 131.56 503.287 130.23 503.287 128.52C503.287 126.81 502.757 125.48 501.697 124.54C500.637 123.6 499.277 123.12 497.627 123.12C495.977 123.12 494.617 123.59 493.557 124.54C492.497 125.48 491.967 126.81 491.967 128.52C491.967 130.23 492.497 131.56 493.557 132.5C494.617 133.45 495.967 133.92 497.627 133.92Z" fill="#391172"/>
<path d="M548.807 118.78L540.307 119.84C539.657 119.96 539.157 120.16 538.797 120.46C538.447 120.76 538.267 121.35 538.267 122.23V167.3C538.267 168.54 538.087 169.37 537.737 169.78C537.387 170.19 536.617 170.4 535.437 170.4H527.117H526.227H517.727V163.05C517.727 156.38 516.057 151.48 512.727 148.35C509.387 145.22 504.097 143.66 496.827 143.66C494.227 143.66 491.717 143.85 489.297 144.24C486.877 144.62 484.807 145.14 483.097 145.79C482.507 146.03 482.077 146.32 481.817 146.68C481.547 147.03 481.417 147.63 481.417 148.45V153.76C481.417 154.59 481.607 155.19 481.997 155.58C482.377 155.96 482.897 156.16 483.547 156.16C484.547 156.16 486.087 155.98 488.147 155.63C490.217 155.28 492.547 155.1 495.147 155.1C498.627 155.1 501.167 155.66 502.767 156.78C504.357 157.9 505.157 160.06 505.157 163.24V170.41H478.237C477.407 170.41 476.837 170.66 476.507 171.16C476.177 171.66 476.017 172.33 476.017 173.15V179.61C476.017 180.44 476.167 181.07 476.457 181.51C476.747 181.95 477.347 182.17 478.227 182.17H526.227H527.117H536.327C541.407 182.17 545.097 181.18 547.397 179.2C549.697 177.22 550.847 174.29 550.847 170.39V120.8C550.847 120.15 550.667 119.62 550.317 119.21C549.957 118.81 549.457 118.66 548.807 118.78Z" fill="#391172"/>
<path d="M571.656 118.78L563.156 119.84C562.506 119.96 562.006 120.16 561.646 120.46C561.296 120.76 561.116 121.35 561.116 122.23V134.63V179.79C561.116 180.62 561.356 181.22 561.826 181.61C562.296 181.99 562.856 182.19 563.506 182.19H571.386C572.926 182.19 573.686 181.36 573.686 179.71V134.64V120.82C573.686 120.17 573.506 119.64 573.156 119.23C572.806 118.81 572.306 118.66 571.656 118.78Z" fill="#391172"/>
<path d="M638.956 171.12H624.256C623.546 169.88 623.196 168.55 623.196 167.13C623.196 165.95 623.546 164.95 624.256 164.12C624.966 163.29 626.146 162.88 627.796 162.88C629.266 162.88 630.866 163.35 632.576 164.3C633.106 164.6 633.506 164.7 633.776 164.61C634.046 164.52 634.296 164.18 634.526 163.59L636.826 157.92C637.006 157.39 637.046 156.87 636.956 156.37C636.866 155.87 636.556 155.44 636.026 155.09C634.436 153.97 632.706 153.17 630.846 152.7C628.986 152.23 626.936 151.99 624.696 151.99C622.926 151.99 621.196 152.27 619.516 152.83C617.836 153.39 616.326 154.2 614.996 155.27C613.666 156.33 612.606 157.63 611.806 159.17C611.006 160.71 610.606 162.48 610.606 164.48C610.606 166.72 611.136 168.94 612.196 171.12H606.436C605.666 171.12 605.136 171.36 604.846 171.83C604.546 172.3 604.406 172.92 604.406 173.69V179.71C604.406 180.54 604.536 181.16 604.806 181.57C605.076 181.98 605.616 182.19 606.446 182.19H638.856C639.686 182.19 640.246 181.98 640.536 181.57C640.826 181.16 640.976 180.54 640.976 179.71V173.69C640.976 172.92 640.826 172.3 640.536 171.83C640.256 171.35 639.726 171.12 638.956 171.12Z" fill="#391172"/>
<path d="M662.606 179.71V120.82C662.606 120.17 662.426 119.64 662.076 119.23C661.726 118.82 661.216 118.67 660.566 118.79L652.066 119.85C651.416 119.97 650.916 120.17 650.556 120.47C650.206 120.77 650.026 121.36 650.026 122.24V179.8C650.026 180.63 650.266 181.23 650.736 181.62C651.206 182 651.766 182.2 652.416 182.2H660.296C661.836 182.19 662.606 181.36 662.606 179.71Z" fill="#391172"/>
<path d="M720.696 123.83C719.046 123.83 717.686 124.3 716.626 125.25C715.566 126.2 715.036 127.52 715.036 129.23C715.036 130.94 715.566 132.27 716.626 133.22C717.686 134.16 719.046 134.64 720.696 134.64C722.346 134.64 723.706 134.17 724.766 133.22C725.826 132.28 726.356 130.95 726.356 129.23C726.356 127.52 725.826 126.19 724.766 125.25C723.706 124.3 722.346 123.83 720.696 123.83Z" fill="#391172"/>
<path d="M702.456 125.24C701.396 126.19 700.866 127.51 700.866 129.22C700.866 130.93 701.396 132.26 702.456 133.21C703.516 134.15 704.876 134.63 706.526 134.63C708.176 134.63 709.536 134.16 710.596 133.21C711.656 132.27 712.186 130.94 712.186 129.22C712.186 127.51 711.656 126.18 710.596 125.24C709.536 124.3 708.176 123.82 706.526 123.82C704.876 123.83 703.516 124.3 702.456 125.24Z" fill="#391172"/>
<path d="M717.686 121.08C718.746 120.14 719.276 118.81 719.276 117.1C719.276 115.39 718.746 114.06 717.686 113.11C716.626 112.17 715.266 111.69 713.616 111.69C711.966 111.69 710.606 112.16 709.546 113.11C708.486 114.06 707.956 115.38 707.956 117.1C707.956 118.81 708.486 120.14 709.546 121.08C710.606 122.02 711.966 122.5 713.616 122.5C715.266 122.5 716.626 122.03 717.686 121.08Z" fill="#391172"/>
<path d="M719.767 145.7C719.327 145.41 718.686 145.26 717.866 145.26H710.606C709.776 145.26 709.116 145.42 708.616 145.75C708.116 146.07 707.866 146.68 707.866 147.57V167.32C707.866 168.56 707.687 169.39 707.337 169.8C706.987 170.21 706.216 170.42 705.036 170.42H696.716H695.827H688.476V147.57C688.476 146.63 688.256 146.01 687.816 145.71C687.376 145.42 686.736 145.27 685.916 145.27H678.656C677.826 145.27 677.166 145.43 676.666 145.76C676.166 146.08 675.916 146.69 675.916 147.58V170.61C675.916 173.27 675.737 175.56 675.387 177.47C675.037 179.39 674.417 181.09 673.527 182.56C672.637 184.03 671.416 185.39 669.846 186.63C668.286 187.87 666.317 189.17 663.957 190.53C662.957 191.12 662.276 191.68 661.916 192.21C661.566 192.74 661.626 193.42 662.096 194.25L665.286 200.09C666.176 201.74 667.386 202.16 668.916 201.33C671.866 199.74 674.417 198.22 676.577 196.77C678.727 195.32 680.547 193.85 682.027 192.34C683.507 190.83 684.667 189.25 685.527 187.6C686.387 185.95 687.047 184.15 687.517 182.2H695.837H696.726H705.936C711.016 182.2 714.706 181.21 717.006 179.23C719.306 177.25 720.457 174.32 720.457 170.42V147.57C720.437 146.62 720.217 146 719.767 145.7Z" fill="#391172"/>
<path d="M742.746 119.22C742.396 118.81 741.886 118.66 741.236 118.78L732.736 119.84C732.086 119.96 731.586 120.16 731.226 120.46C730.876 120.76 730.696 121.35 730.696 122.23V179.79C730.696 180.62 730.936 181.22 731.406 181.61C731.876 181.99 732.436 182.19 733.086 182.19H740.966C742.506 182.19 743.266 181.36 743.266 179.71V120.82C743.276 120.17 743.106 119.64 742.746 119.22Z" fill="#391172"/>
<path d="M399.606 16.01H368.106C366.136 16.01 365.146 16.88 365.146 18.64V25.06C365.146 27.12 366.136 28.14 368.106 28.14H374.406V86.4H368.106C366.136 86.4 365.146 87.42 365.146 89.49V95.91C365.146 97.65 366.136 98.52 368.106 98.52H399.606C401.596 98.52 402.586 97.65 402.586 95.91V89.49C402.586 87.42 401.596 86.4 399.606 86.4H393.316V28.14H399.606C401.596 28.14 402.586 27.12 402.586 25.06V18.64C402.586 16.88 401.596 16.01 399.606 16.01Z" fill="#391172"/>
<path d="M419.946 31.35H441.706V95.08C441.706 97.37 442.806 98.52 445.036 98.52H457.396C458.586 98.52 459.416 98.2 459.906 97.57C460.376 96.93 460.606 96.15 460.606 95.2V31.36H481.546C482.796 31.36 483.806 31.18 484.506 30.77C485.226 30.37 485.656 29.58 485.806 28.4L486.756 19C487.006 17.03 486.006 16.02 483.796 16.02H419.836C417.696 16.02 416.626 17.02 416.626 19V27.8C416.616 30.16 417.716 31.35 419.946 31.35Z" fill="#391172"/>
<path d="M609.437 97.57C609.907 96.93 610.157 96.15 610.157 95.2V70.58H617.517L634.037 95.91C634.677 96.93 635.427 97.63 636.297 97.98C637.187 98.33 638.207 98.52 639.387 98.52H652.227C653.327 98.52 654.067 98.32 654.437 97.92C654.787 97.54 654.967 97.1 654.967 96.62C654.967 96.24 654.867 95.85 654.667 95.5C654.467 95.13 654.247 94.76 654.017 94.36L634.987 67.14V66.9C639.817 64.44 643.397 61.11 645.687 56.92C647.997 52.72 649.127 47.96 649.127 42.66C649.127 39.4 648.587 36.24 647.517 33.15C646.447 30.06 644.837 27.33 642.697 24.94C640.877 22.97 638.797 21.38 636.457 20.19C634.117 19 631.637 18.1 629.037 17.46C626.407 16.82 623.767 16.42 621.077 16.27C618.367 16.1 615.757 16.02 613.217 16.02H595.157C593.567 16.02 592.517 16.3 591.997 16.86C591.477 17.41 591.227 18.48 591.227 20.07V95.08C591.227 97.37 592.347 98.52 594.557 98.52H606.927C608.137 98.52 608.947 98.2 609.437 97.57ZM610.157 30.28H614.787C616.997 30.28 619.037 30.5 620.907 30.93C622.767 31.38 624.387 32.1 625.777 33.14C627.167 34.18 628.237 35.48 628.987 37.07C629.737 38.64 630.127 40.63 630.127 43.01C630.127 47.44 628.877 50.8 626.377 53.06C623.887 55.32 620.457 56.44 616.097 56.44H610.157V30.28Z" fill="#391172"/>
<path d="M743.106 97.26C743.376 96.44 743.326 95.47 742.926 94.35L714.166 18.99C713.766 18.12 713.276 17.4 712.676 16.85C712.076 16.3 711.236 16.01 710.116 16.01H697.526C696.406 16.01 695.556 16.29 694.966 16.85C694.366 17.4 693.876 18.12 693.476 18.99L665.536 94.35C665.156 95.47 665.086 96.44 665.366 97.26C665.636 98.1 666.406 98.51 667.676 98.51H680.406C681.506 98.51 682.326 98.23 682.846 97.67C683.346 97.12 683.736 96.45 683.966 95.65L703.116 36.81H703.346L705.486 43.72L706.206 45.94L722.846 95.19C723.246 96.23 723.746 97.03 724.386 97.63C725.026 98.22 726.056 98.52 727.476 98.52H740.786C742.056 98.52 742.826 98.1 743.106 97.26Z" fill="#391172"/>
<path d="M568.537 95.07V19.13C568.537 18.15 568.267 17.36 567.737 16.73C567.207 16.11 566.447 15.89 565.477 16.06L552.707 17.66C551.727 17.84 550.977 18.15 550.447 18.59C549.917 19.04 549.647 19.92 549.647 21.25V49.06H519.567V19.13C519.567 18.15 519.297 17.36 518.767 16.73C518.237 16.11 517.477 15.89 516.507 16.06L503.737 17.66C502.757 17.84 502.007 18.15 501.477 18.59C500.947 19.04 500.677 19.92 500.677 21.25V95.06C500.677 96.4 500.977 97.32 501.567 97.79C502.167 98.27 503.107 98.51 504.357 98.51H516.127C518.437 98.51 519.567 97.36 519.567 95.07V64.4H549.647V95.07C549.647 96.41 549.947 97.33 550.537 97.8C551.137 98.29 552.077 98.52 553.327 98.52H565.097C567.397 98.52 568.537 97.37 568.537 95.07Z" fill="#391172"/>
<defs>
<linearGradient id="paint0_linear_947_195" x1="88.888" y1="52.2584" x2="281.998" y2="147.336" gradientUnits="userSpaceOnUse">
<stop offset="0.0293" stop-color="#D31699"/>
<stop offset="1" stop-color="#7222E3"/>
</linearGradient>
<linearGradient id="paint1_linear_947_195" x1="83.9823" y1="62.2208" x2="277.092" y2="157.298" gradientUnits="userSpaceOnUse">
<stop offset="0.0293" stop-color="#D31699"/>
<stop offset="1" stop-color="#7222E3"/>
</linearGradient>
<linearGradient id="paint2_linear_947_195" x1="75.3228" y1="79.8103" x2="268.433" y2="174.888" gradientUnits="userSpaceOnUse">
<stop offset="0.0293" stop-color="#D31699"/>
<stop offset="1" stop-color="#7222E3"/>
</linearGradient>
<linearGradient id="paint3_linear_947_195" x1="64.0878" y1="102.629" x2="257.198" y2="197.706" gradientUnits="userSpaceOnUse">
<stop offset="0.0293" stop-color="#D31699"/>
<stop offset="1" stop-color="#7222E3"/>
</linearGradient>
<linearGradient id="paint4_linear_947_195" x1="52.4568" y1="126.252" x2="245.567" y2="221.33" gradientUnits="userSpaceOnUse">
<stop offset="0.0293" stop-color="#D31699"/>
<stop offset="1" stop-color="#7222E3"/>
</linearGradient>
<linearGradient id="paint5_linear_947_195" x1="40.8854" y1="149.755" x2="233.995" y2="244.833" gradientUnits="userSpaceOnUse">
<stop offset="0.0293" stop-color="#D31699"/>
<stop offset="1" stop-color="#7222E3"/>
</linearGradient>
<linearGradient id="paint6_linear_947_195" x1="107.792" y1="13.8632" x2="300.902" y2="108.941" gradientUnits="userSpaceOnUse">
<stop offset="0.0293" stop-color="#D31699"/>
<stop offset="1" stop-color="#7222E3"/>
</linearGradient>
<linearGradient id="paint7_linear_947_195" x1="114.421" y1="0.398045" x2="307.531" y2="95.4758" gradientUnits="userSpaceOnUse">
<stop offset="0.0293" stop-color="#D31699"/>
<stop offset="1" stop-color="#7222E3"/>
</linearGradient>
<linearGradient id="paint8_linear_947_195" x1="118.531" y1="-7.94918" x2="311.641" y2="87.1286" gradientUnits="userSpaceOnUse">
<stop offset="0.0293" stop-color="#D31699"/>
<stop offset="1" stop-color="#7222E3"/>
</linearGradient>
</defs>
</svg>
