<svg width="188" height="97" viewBox="0 0 188 97" fill="none" xmlns="http://www.w3.org/2000/svg">
<g opacity="0.62">
<path d="M140.968 129.19C141.102 107.414 136.619 85.6627 127.554 66.0829C117.544 44.0828 101.834 24.9154 82.8055 10.9463C76.7683 6.14839 82.9563 -3.21695 89.4111 1.11391C112.864 19.8567 130.721 45.9996 139.762 75.3694C145.109 92.7413 147.371 111.187 146.484 129.36C146.211 133.06 141.05 132.963 140.968 129.19Z" fill="url(#paint0_linear_1089_295)"/>
<path d="M123.953 111.193C118.524 91.6372 109.309 73.319 96.9329 57.6211C84.6555 42.0689 69.3043 29.2401 52.1495 20.1295C49.3193 18.6252 48.1942 15.0101 49.6325 12.0501C51.0708 9.09003 54.5273 7.91329 57.3574 9.41757C79.9579 22.6588 99.1425 42.0567 112.528 65.2153C120.432 78.954 126.371 93.9664 129.984 109.513C130.837 113.625 125.2 115.251 123.953 111.193Z" fill="url(#paint1_linear_1089_295)"/>
<path d="M104.682 100.542C96.6094 86.8274 86.5763 74.4838 74.931 63.9964C60.0612 50.6459 42.57 40.4739 24.0233 34.3476C21.0018 33.3407 19.3257 29.9621 20.2885 26.8019C21.2512 23.6417 24.4815 21.8888 27.503 22.8957C53.7746 33.1223 77.0768 50.7248 94.4984 73.5558C100.246 81.0711 105.338 89.0959 109.722 97.4968C110.493 98.9708 109.971 100.821 108.562 101.628C107.188 102.404 105.483 101.913 104.682 100.542Z" fill="url(#paint2_linear_1089_295)"/>
<path d="M82.0309 100.475C72.7112 87.7496 61.321 76.698 48.4752 68.0424C35.7744 59.4231 21.6411 53.1816 6.95108 49.5786C3.85996 48.8204 1.94034 45.5874 2.66528 42.3544C3.40761 38.9698 6.81189 36.9378 9.9726 37.9872C25.5036 43.0277 40.1994 50.8342 53.1496 61.0487C66.0128 71.1359 77.1478 83.5583 85.9688 97.5517C87.5984 100.263 83.9622 103.017 82.0309 100.475Z" fill="url(#paint3_linear_1089_295)"/>
<path d="M55.3983 100.433C47.7662 90.8856 38.2841 83.0791 27.6827 77.5533C19.575 73.362 10.7946 70.4929 1.88087 69.0857C-1.26244 68.5823 -3.41404 65.513 -2.93269 62.2315C-2.43973 58.7195 0.95875 56.3964 4.23545 57.3305C15.3878 60.4058 25.995 65.4403 35.4076 72.3854C44.6867 79.1971 52.7248 87.7982 59.0114 97.6002C60.5366 100.081 57.2541 102.683 55.3983 100.433Z" fill="url(#paint4_linear_1089_295)"/>
<path d="M25.5707 94.6406C19.1333 90.795 12.0058 89.036 5.24938 89.3029C2.03068 89.4302 -0.677673 86.8038 -0.799462 83.4313C-0.921251 80.0649 1.58992 77.2323 4.81442 77.1049C5.53935 77.0746 6.22369 77.1898 6.88483 77.4082C11.1068 78.6759 15.0911 80.5259 18.6925 82.8612C22.2998 85.1964 25.5185 88.0048 28.2733 91.1408C29.0852 92.0627 29.0272 93.5003 28.1457 94.3555C27.4265 95.047 26.3768 95.138 25.5707 94.6406Z" fill="url(#paint5_linear_1089_295)"/>
<path d="M127.381 5.91218C144.988 31.309 156.495 61.2368 160.74 92.2625C161.267 97.0362 154.72 98.2311 153.693 93.512C149.599 71.5423 141.746 50.349 130.484 31.3332C126.755 25.0189 122.655 18.9594 118.23 13.1849C116.246 10.5948 116.646 6.81596 119.123 4.74152C121.68 2.58822 125.473 3.13412 127.381 5.91218Z" fill="url(#paint6_linear_1089_295)"/>
<path d="M157.985 15.8475C168.262 38.1751 174.34 62.565 175.732 87.2157C175.836 89.0293 174.514 90.5882 172.78 90.6913C171.133 90.7944 169.7 89.5449 169.48 87.8647C166.464 64.4878 159.064 41.7902 147.819 21.44C146.23 18.5649 147.175 14.8892 149.924 13.2272C152.801 11.4803 156.559 12.6995 157.985 15.8475Z" fill="url(#paint7_linear_1089_295)"/>
<path d="M187.888 41.4929C188.317 52.2473 187.511 62.9228 185.533 73.2222C185.249 74.6962 183.874 75.6545 182.465 75.3573C181.241 75.1026 180.389 73.9865 180.372 72.7309C180.221 62.6498 178.898 52.7204 176.521 43.2155C175.715 39.9886 177.559 36.6829 180.644 35.8337C184.17 34.8207 187.812 37.6716 187.888 41.4929Z" fill="url(#paint8_linear_1089_295)"/>
</g>
<defs>
<linearGradient id="paint0_linear_1089_295" x1="48.5491" y1="31.7019" x2="162.45" y2="85.3203" gradientUnits="userSpaceOnUse">
<stop offset="0.0293" stop-color="#D31699"/>
<stop offset="1" stop-color="#7222E3"/>
</linearGradient>
<linearGradient id="paint1_linear_1089_295" x1="45.7044" y1="37.7445" x2="159.605" y2="91.3628" gradientUnits="userSpaceOnUse">
<stop offset="0.0293" stop-color="#D31699"/>
<stop offset="1" stop-color="#7222E3"/>
</linearGradient>
<linearGradient id="paint2_linear_1089_295" x1="40.6832" y1="48.4139" x2="154.584" y2="102.032" gradientUnits="userSpaceOnUse">
<stop offset="0.0293" stop-color="#D31699"/>
<stop offset="1" stop-color="#7222E3"/>
</linearGradient>
<linearGradient id="paint3_linear_1089_295" x1="34.1691" y1="62.2549" x2="148.07" y2="115.873" gradientUnits="userSpaceOnUse">
<stop offset="0.0293" stop-color="#D31699"/>
<stop offset="1" stop-color="#7222E3"/>
</linearGradient>
<linearGradient id="paint4_linear_1089_295" x1="27.4222" y1="76.5841" x2="141.323" y2="130.203" gradientUnits="userSpaceOnUse">
<stop offset="0.0293" stop-color="#D31699"/>
<stop offset="1" stop-color="#7222E3"/>
</linearGradient>
<linearGradient id="paint5_linear_1089_295" x1="20.7102" y1="90.8408" x2="134.611" y2="144.459" gradientUnits="userSpaceOnUse">
<stop offset="0.0293" stop-color="#D31699"/>
<stop offset="1" stop-color="#7222E3"/>
</linearGradient>
<linearGradient id="paint6_linear_1089_295" x1="59.5133" y1="8.41314" x2="173.414" y2="62.0315" gradientUnits="userSpaceOnUse">
<stop offset="0.0293" stop-color="#D31699"/>
<stop offset="1" stop-color="#7222E3"/>
</linearGradient>
<linearGradient id="paint7_linear_1089_295" x1="63.3585" y1="0.24554" x2="177.259" y2="53.8639" gradientUnits="userSpaceOnUse">
<stop offset="0.0293" stop-color="#D31699"/>
<stop offset="1" stop-color="#7222E3"/>
</linearGradient>
<linearGradient id="paint8_linear_1089_295" x1="65.7422" y1="-4.81769" x2="179.643" y2="48.8007" gradientUnits="userSpaceOnUse">
<stop offset="0.0293" stop-color="#D31699"/>
<stop offset="1" stop-color="#7222E3"/>
</linearGradient>
</defs>
</svg>
